<?xml version="1.0" standalone="no"?>
<!DOCTYPE svg PUBLIC "-//W3C//DTD SVG 20010904//EN"
 "http://www.w3.org/TR/2001/REC-SVG-20010904/DTD/svg10.dtd">
<svg version="1.0" xmlns="http://www.w3.org/2000/svg"
 width="310.000000pt" height="241.000000pt" viewBox="0 0 310.000000 241.000000"
 preserveAspectRatio="xMidYMid meet">

<g transform="translate(0.000000,241.000000) scale(0.100000,-0.100000)"
fill="#000000" stroke="none">
<path d="M1688 1640 c-2 -6 -29 -17 -61 -24 -35 -8 -69 -24 -85 -39 -20 -19
-97 -48 -292 -110 -145 -47 -266 -89 -267 -93 -2 -5 41 -9 95 -9 74 -1 105 -5
131 -19 32 -17 38 -17 116 -1 48 9 141 17 226 18 l144 2 7 -140 c3 -77 9 -288
13 -470 3 -197 10 -334 16 -340 15 -15 30 15 25 52 l-4 31 27 -16 c35 -20 59
-11 67 25 12 58 15 59 34 23 11 -19 19 -43 20 -53 0 -23 41 -41 73 -33 18 4
27 15 32 38 10 48 14 50 38 28 35 -33 54 -22 78 45 l10 30 27 -55 c26 -53 28
-55 67 -55 l39 0 17 60 c10 33 24 78 33 100 21 56 20 71 -10 98 l-26 24 21 41
c26 52 27 84 1 107 -17 16 -32 17 -115 11 -147 -10 -160 -18 -195 -123 -24
-70 -12 -63 -160 -82 -41 -6 -76 -8 -79 -5 -6 6 -19 339 -20 512 l-1 142 63 0
c34 0 100 7 147 16 54 9 137 14 230 14 170 -2 291 13 269 34 -2 2 -87 27 -189
55 -309 86 -334 94 -360 113 -14 10 -55 22 -95 27 -38 4 -71 13 -73 19 -5 15
-29 16 -34 2z m604 -960 c4 -27 2 -30 -24 -30 -33 0 -33 1 -13 41 19 35 31 31
37 -11z m-466 -90 c14 0 13 -14 -3 -72 -11 -41 -46 -9 -68 61 -7 23 -5 24 25
17 18 -3 39 -6 46 -6z m171 -38 c-19 -96 -53 -109 -86 -33 -11 27 -21 53 -21
58 0 4 25 6 56 5 55 -4 56 -5 51 -30z m260 -7 c-6 -24 -16 -46 -23 -49 -20 -8
-53 26 -60 62 l-6 32 49 0 50 0 -10 -45z m-162 13 c-4 -13 -11 -27 -16 -32
-11 -13 -39 12 -39 35 0 15 7 19 31 19 27 0 30 -3 24 -22z"/>
<path d="M1300 831 c-30 -4 -64 -12 -76 -18 -11 -6 -37 -47 -57 -91 l-38 -80
-77 -11 c-163 -23 -157 -20 -157 -71 -1 -67 26 -150 56 -172 34 -25 56 -14 69
33 13 46 24 44 41 -9 16 -52 27 -62 65 -62 37 0 64 29 64 67 l0 23 21 -21 c13
-13 30 -19 47 -17 22 2 29 10 36 41 5 20 13 37 17 37 4 0 15 -20 25 -45 18
-47 38 -65 73 -65 30 0 49 25 61 85 6 30 16 57 21 60 15 10 11 131 -6 145 -12
10 -12 15 0 33 24 39 29 92 10 121 -16 24 -23 26 -79 25 -33 -1 -86 -5 -116
-8z m178 -234 c3 -39 1 -41 -36 -31 -18 5 -21 11 -16 28 17 56 47 58 52 3z
m-475 -112 c-6 -53 -16 -86 -27 -82 -10 3 -55 83 -56 100 0 5 19 7 43 5 35 -3
42 -6 40 -23z m442 -7 c-13 -60 -24 -80 -43 -76 -18 3 -59 75 -48 85 5 5 53
17 89 22 5 0 5 -14 2 -31z m-278 -2 c3 -2 1 -24 -4 -48 -7 -34 -13 -44 -31
-46 -19 -3 -27 6 -46 50 -13 29 -22 56 -20 59 4 6 94 -7 101 -15z m94 -39 c-7
-7 -15 -6 -26 3 -22 18 -19 38 8 42 24 3 37 -26 18 -45z"/>
</g>
</svg>
